# AST/ASF file generated using VICON BodyLanguage
# -----------------------------------------------
:version 1.10
:name VICON
:units
  mass 1.0
  length 0.45
  angle deg
:documentation
   .ast/.asf automatically generated from VICON data using
   VICON BodyBuilder and BodyLanguage model FoxedUp or BRILLIANT.MOD
:root
   order TX TY TZ RX RY RZ
   axis XYZ
   position 0 0 0  
   orientation 0 0 0 
:bonedata
  begin
     id 1 
     name lhipjoint
     direction 0.63403 -0.759788 0.143974 
     length 2.51904 
     axis 0 0 0  XYZ
  end
  begin
     id 2 
     name lfemur
     direction 0.34202 -0.939693 0  
     length 7.42313  
     axis 0 0 20  XYZ
    dof rx ry rz
    limits (-160.0 20.0)
           (-70.0 70.0)
           (-60.0 70.0)
  end
  begin
     id 3 
     name ltibia
     direction 0.34202 -0.939693 0   
     length 8.10141   
     axis 0 0 20   XYZ
    dof rx
    limits (-10.0 170.0)
  end
  begin
     id 4 
     name lfoot
     direction 0.0927455 -0.254816 0.962532   
     length 2.14078   
     axis -90 7.62852e-016 20   XYZ
    dof rx rz
    limits (-45.0 90.0)
           (-70.0 20.0)
  end
  begin
     id 5 
     name ltoes
     direction 1.53556e-011 -4.21949e-011 1   
     length 1.07182   
     axis -90 7.62852e-016 20   XYZ
    dof rx
    limits (-90.0 20.0)
  end
  begin
     id 6 
     name rhipjoint
     direction -0.659892 -0.738223 0.139888   
     length 2.59263  
     axis 0 0 0  XYZ 
  end
  begin
     id 7 
     name rfemur
     direction -0.34202 -0.939693 0   
     length 7.58575   
     axis 0 0 -20   XYZ
    dof rx ry rz
    limits (-160.0 20.0)
           (-70.0 70.0)
           (-70.0 60.0)
  end
  begin
     id 8 
     name rtibia
     direction -0.34202 -0.939693 0   
     length 8.19358   
     axis 0 0 -20   XYZ
    dof rx
    limits (-10.0 170.0)
 end
 begin
     id 9 
     name rfoot
     direction -0.0856543 -0.235333 0.968133   
     length 2.13415  
     axis -90 -7.62852e-016 -20   XYZ
    dof rx rz
    limits (-45.0 90.0)
           (-20.0 70.0)
  end
  begin
     id 10 
     name rtoes
     direction -1.53551e-011 -4.21811e-011 1   
     length 1.07055   
     axis -90 -7.62852e-016 -20   XYZ
    dof rx
    limits (-90.0 20.0)
  end
  begin
     id 11 
     name lowerback
     direction 0.025219 0.998394 -0.0507326   
     length 1.91844   
     axis 0 0 0   XYZ
    dof rx ry rz
    limits (-20.0 45.0)
           (-30.0 30.0)
           (-30.0 30.0)
  end
  begin
     id 12 
     name upperback
     direction 0.0213103 0.99967 -0.0143101   
     length 1.92246   
     axis 0 0 0   XYZ
    dof rx ry rz
    limits (-20.0 45.0)
           (-30.0 30.0)
           (-30.0 30.0)
  end
  begin
     id 13 
     name thorax
     direction 0.00920974 0.99991 0.00971518   
     length 1.92239   
     axis 0 0 0   XYZ
    dof rx ry rz
    limits (-20.0 45.0)
           (-30.0 30.0)
           (-30.0 30.0)
  end
  begin
     id 14 
     name lowerneck
     direction 0.0598257 0.997249 0.0437612   
     length 3.13679   
     axis 0 0 0   XYZ
    dof rx ry rz
    limits (-20.0 45.0)
           (-30.0 30.0)
           (-30.0 30.0)
  end
  begin
     id 15 
     name upperneck
     direction -0.035342 0.999338 0.00863891   
     length 3.16283   
     axis 0 0 0   XYZ
    dof rx ry rz
    limits (-20.0 45.0)
           (-30.0 30.0)
           (-30.0 30.0)
  end
  begin
     id 16
     name head
     direction 0.37144 0.811566 0.450991  
     length 1.2838  
     axis 0 0 0   XYZ
    dof rx ry rz
    limits (-20.0 45.0)
           (-30.0 30.0)
           (-30.0 30.0)
  end
  begin
     id 17 
     name lclavicle
     direction 0.961094 0.274654 -0.0293862  
     length 3.63466  
     axis 0 0 0   XYZ
    dof ry rz
    limits (-20.0 10.0)
           (0.0 20.0)
  end
  begin
     id 18 
     name lhumerus
     direction 1 -4.48963e-011 1.10303e-027   
     length 5.12842   
     axis 180 -30 -90   XYZ
    dof rx ry rz
    limits (-60.0 90.0)
           (-90.0 90.0)
           (-90.0 90.0)
  end
  begin
     id 19
     name lradius
     direction 1 -4.48968e-011 4.13199e-027   
     length 3.47396   
     axis 180 -30 -90   XYZ
    dof rx
    limits (-10.0 170.0)
  end
  begin
     id 20
     name lwrist
     direction 1 -4.48948e-011 9.12708e-027   
     length 1.73698   
     axis -6.84618e-015 90 90   XYZ
    dof ry
    limits (-180.0 0.0)
 end
  begin
     id 21 
     name lhand
     direction 1 -4.49057e-011 1.82749e-026   
     length 0.728607   
     axis -1.16502e-014 90 90   XYZ
    dof rx rz
    limits (-90.0 90.0)
           (-45.0 45.0)
  end
  begin
     id 22 
     name lfingers
     direction 1 -4.48912e-011 3.64949e-026   
     length 0.587422   
     axis -2.33008e-014 90 90   XYZ
    dof rx
    limits (0.0 90.0)
  end
  begin
     id 23
     name lthumb
     direction 0.707107 -6.34995e-011 0.707107   
     length 0.843424   
     axis -90 45 5.69224e-014   XYZ
    dof rx rz
    limits (-45.0 45.0)
           (-45.0 45.0)
  end
  begin
     id 24 
     name rclavicle
     direction -0.90514 0.421881 -0.0523369   
     length 3.57139  
     axis 0 0 0   XYZ 
    dof ry rz
    limits (-10.0 20.0)
           (-20.0 0.0)
  end
  begin
     id 25 
     name rhumerus
     direction -1 -4.48954e-011 -1.76662e-027  
     length 5.48477   
     axis 180 30 90   XYZ
    dof rx ry rz
    limits (-90.0 60.0)
           (-90.0 90.0)
           (-90.0 90.0)
  end
  begin
     id 26 
     name rradius
     direction -1 -4.48982e-011 1.26841e-027   
     length 3.47856   
     axis 180 30 90   XYZ
    dof rx
    limits (-10.0 170.0)
  end
  begin
     id 27 
     name rwrist
     direction -1 -4.49037e-011 9.13554e-027   
     length 1.73928   
     axis -6.84618e-015 -90 -90   XYZ
    dof ry
    limits (-180.0 0.0)
  end
  begin
     id 28
     name rhand
     direction -1 -4.48871e-011 1.82397e-026   
     length 0.709974   
     axis -1.16502e-014 -90 -90   XYZ
    dof rx rz
    limits (-90.0 90.0)
           (-45.0 45.0)
  end
  begin
     id 29
     name rfingers
     direction -1 -4.48994e-011 3.65258e-026   
     length 0.572399   
     axis -2.33008e-014 -90 -90   XYZ
    dof rx
    limits (0.0 90.0)
  end
  begin
     id 30
     name rthumb
     direction -0.707107 -6.34861e-011 0.707107   
     length 0.821855   
     axis -90 -45 -5.69224e-014   XYZ
    dof rx rz
    limits (-45.0 45.0)
           (-45.0 45.0)
  end
:hierarchy
  begin
    root lhipjoint rhipjoint lowerback
    lhipjoint lfemur
    lfemur ltibia
    ltibia lfoot
    lfoot ltoes
    rhipjoint rfemur
    rfemur rtibia
    rtibia rfoot
    rfoot rtoes
    lowerback upperback
    upperback thorax
    thorax lowerneck lclavicle rclavicle
    lowerneck upperneck
    upperneck head
    lclavicle lhumerus
    lhumerus lradius
    lradius lwrist
    lwrist lhand lthumb
    lhand lfingers
    rclavicle rhumerus
    rhumerus rradius
    rradius rwrist
    rwrist rhand rthumb
    rhand rfingers
  end

#!OML:ASF F:\VICON\USERDATA\INSTALL\Justin1\Justin1.ASF
:FULLY-SPECIFIED
:DEGREES
3787
root 0.0448481 18.2375 -3.51034 3.94279 0.356497 -2.87496
lowerback 0.523255 -0.690789 1.25837
upperback -2.36702 -0.831819 2.80805
thorax -2.70039 -0.409574 2.20489
lowerneck -15.4314 -8.47187 -6.60473
upperneck 15.7661 -10.4038 1.87767
head 7.84888 -5.17873 0.479005
rclavicle 1.17221e-014 -2.38542e-014
rhumerus 37.7714 37.8636 -29.8381
rradius 106.757
rwrist -16.4893
rhand -19.9195 32.6928
rfingers 7.12502
rthumb 6.41751 2.81005
lclavicle 1.17221e-014 -2.38542e-014
lhumerus 62.8924 -59.219 3.09155
lradius 94.4093
lwrist 1.09136
lhand -5.44439 8.79308
lfingers 7.12502
lthumb 20.3664 37.7451
rfemur -14.7764 6.58797 27.1468
rtibia 32.9381
rfoot -17.9181 -16.9157
rtoes 25.5823
lfemur -14.2721 -8.96349 -18.4891
ltibia 29.1072
lfoot -16.3486 8.20228
ltoes 5.6822
3788
root 0.0476281 18.2395 -3.50557 3.89418 0.363624 -2.82207
lowerback 0.460866 -0.69794 1.24372
upperback -2.32595 -0.845782 2.7648
thorax -2.62278 -0.416919 2.16729
lowerneck -15.2266 -8.61443 -6.67028
upperneck 15.5915 -10.6279 2.05212
head 7.77858 -5.27521 0.529574
rclavicle 6.93262e-015 -1.19271e-015
rhumerus 37.4342 37.551 -30.5926
rradius 105.397
rwrist -16.4925
rhand -20.7641 32.7639
rfingers 7.12502
rthumb 5.6021 2.85792
lclavicle 6.93262e-015 -1.19271e-015
lhumerus 63.861 -59.7676 2.03597
lradius 95.6185
lwrist 1.13756
lhand -5.39229 9.17937
lfingers 7.12502
lthumb 20.4165 38.1261
rfemur -14.6846 6.51238 27.0832
rtibia 32.9178
rfoot -17.931 -16.8696
rtoes 25.5354
lfemur -14.1868 -9.04613 -18.5732
ltibia 29.0989
lfoot -16.3904 8.29438
ltoes 5.71547
3789
root 0.0474478 18.24 -3.50453 3.85517 0.330803 -2.85991
lowerback 0.49272 -0.710947 1.25087
upperback -2.34126 -0.861505 2.76976
thorax -2.65613 -0.424809 2.16955
lowerneck -15.1231 -8.74404 -6.69187
upperneck 15.6088 -10.8167 2.08915
head 7.77805 -5.36409 0.525059
rclavicle 2.28416e-014 -3.02153e-014
rhumerus 37.3539 37.2773 -31.1437
rradius 104.036
rwrist -16.6507
rhand -20.6933 32.6101
rfingers 7.12502
rthumb 5.67049 2.706
lclavicle 2.28416e-014 -3.02153e-014
lhumerus 63.904 -60.1268 2.09516
lradius 96.6257
lwrist 0.375559
lhand -4.18347 8.48313
lfingers 7.12502
lthumb 21.5778 37.301
rfemur -14.62 6.54283 27.1305
rtibia 32.8948
rfoot -17.9183 -16.8661
rtoes 25.6288
lfemur -14.1289 -9.12316 -18.545
ltibia 29.0898
lfoot -16.3648 8.4354
ltoes 5.66728
3790
root 0.0460759 18.2389 -3.50473 3.83566 0.305725 -2.968
lowerback 0.570333 -0.755723 1.31152
upperback -2.40447 -0.914275 2.83578
thorax -2.76367 -0.45149 2.20739
lowerneck -14.8903 -8.82194 -6.85311
upperneck 15.5515 -10.9166 2.16058
head 7.73711 -5.41767 0.570952
rclavicle 1.3859e-014 -1.39149e-014
rhumerus 37.3981 37.2672 -31.3537
rradius 102.687
rwrist -16.6882
rhand -20.5368 32.4931
rfingers 7.12502
rthumb 5.82155 2.59311
lclavicle 1.3859e-014 -1.39149e-014
lhumerus 63.9768 -60.6075 2.02773
lradius 97.8727
lwrist 0.288915
lhand -2.66959 6.26218
lfingers 7.12502
lthumb 23.031 34.9061
rfemur -14.5915 6.57797 27.2612
rtibia 32.8726
rfoot -17.91 -16.9004
rtoes 25.6909
lfemur -14.1112 -9.18964 -18.4197
ltibia 29.0993
lfoot -16.3723 8.47285
ltoes 6.19402
3791
root 0.0440925 18.2397 -3.50353 3.82881 0.258496 -2.92847
lowerback 0.441495 -0.823474 1.38276
upperback -2.3214 -1.01246 2.73
thorax -2.60551 -0.503641 2.05746
lowerneck -14.8413 -8.83957 -6.84657
upperneck 15.4712 -10.9758 2.3308
head 7.7143 -5.43025 0.621295
rclavicle 9.08197e-015 1.35174e-014
rhumerus 37.4767 37.2807 -31.572
rradius 101.13
rwrist -16.5369
rhand -20.7176 32.3513
rfingers 7.12502
rthumb 5.64702 2.44656
lclavicle 9.08197e-015 1.35174e-014
lhumerus 64.1489 -60.8049 1.6338
lradius 99.3746
lwrist 0.175938
lhand -2.47546 7.64034
lfingers 7.12502
lthumb 23.2173 36.2609
rfemur -14.5778 6.62391 27.2225
rtibia 32.8785
rfoot -18.0705 -16.8393
rtoes 26.2158
lfemur -14.1121 -9.16224 -18.4622
ltibia 29.115
lfoot -16.4328 8.44333
ltoes 6.5394
3792
root 0.0426565 18.2394 -3.50415 3.85997 0.208958 -2.88311
lowerback 0.38576 -0.820723 1.34738
upperback -2.30886 -1.01312 2.65913
thorax -2.56165 -0.504089 2.00304
lowerneck -14.7847 -8.9283 -6.81538
upperneck 15.4531 -11.1277 2.43146
head 7.70954 -5.49213 0.632885
rclavicle -2.73018e-014 3.69739e-014
rhumerus 37.3702 37.4272 -31.7192
rradius 99.6049
rwrist -16.448
rhand -21.0259 32.1683
rfingers 7.12502
rthumb 5.34931 2.25581
lclavicle -2.73018e-014 3.69739e-014
lhumerus 64.0026 -60.9109 1.849
lradius 100.589
lwrist -0.00794356
lhand -2.68833 8.15772
lfingers 7.12502
lthumb 23.013 36.8039
rfemur -14.6402 6.62246 27.1768
rtibia 32.9225
rfoot -17.9364 -16.8765
rtoes 25.473
lfemur -14.1453 -9.15514 -18.5061
ltibia 29.1162
lfoot -16.4371 8.44899
ltoes 6.82945
3793
root 0.0421742 18.2389 -3.50439 3.90829 0.190612 -2.8051
lowerback 0.395018 -0.799237 1.17436
upperback -2.37529 -0.984728 2.68793
thorax -2.63259 -0.485727 2.13022
lowerneck -14.6115 -9.11285 -7.12473
upperneck 15.4426 -11.3669 2.65263
head 7.71996 -5.6054 0.727592
rclavicle 1.12438e-015 -2.66371e-014
rhumerus 37.2581 37.7706 -31.6476
rradius 98.2021
rwrist -16.0699
rhand -21.0434 31.8252
rfingers 7.12502
rthumb 5.33242 1.91229
lclavicle 1.12438e-015 -2.66371e-014
lhumerus 63.5163 -61.0843 2.64438
lradius 101.768
lwrist -0.286251
lhand -2.94531 8.64291
lfingers 7.12502
lthumb 22.7664 37.3196
rfemur -14.7245 6.61156 27.0839
rtibia 32.9744
rfoot -17.916 -16.8392
rtoes 25.5953
lfemur -14.195 -9.1407 -18.5853
ltibia 29.118
lfoot -16.4483 8.45986
ltoes 6.59583
3794
root 0.0405835 18.2386 -3.50545 3.96137 0.17904 -2.68376
lowerback 0.44164 -0.74457 0.894498
upperback -2.47395 -0.911852 2.73548
thorax -2.75757 -0.44204 2.3367
lowerneck -14.44 -9.35305 -7.48504
upperneck 15.4882 -11.6609 2.80235
head 7.75217 -5.75419 0.798237
rclavicle 3.81418e-015 1.59028e-015
rhumerus 37.0496 38.2429 -31.4905
rradius 96.7489
rwrist -15.3227
rhand -21.1434 31.0709
rfingers 7.12502
rthumb 5.23585 1.15555
lclavicle 3.81418e-015 1.59028e-015
lhumerus 62.8808 -61.1154 3.78027
lradius 102.871
lwrist -0.485196
lhand -3.02831 8.88684
lfingers 7.12502
lthumb 22.6868 37.5733
rfemur -14.8091 6.62539 26.9399
rtibia 33.0189
rfoot -18.0303 -16.7691
rtoes 26.1665
lfemur -14.2563 -9.14585 -18.7123
ltibia 29.1339
lfoot -16.4461 8.49311
ltoes 6.58739
3795
root 0.0385208 18.2368 -3.50583 3.92477 0.193886 -2.72816
lowerback 0.675382 -0.71627 0.714258
upperback -2.6119 -0.864842 2.86869
thorax -3.02912 -0.411107 2.58032
lowerneck -14.2189 -9.51553 -7.75677
upperneck 15.508 -11.8442 2.80369
head 7.74777 -5.86027 0.824969
rclavicle 8.02593e-015 -2.38542e-014
rhumerus 36.8786 38.9512 -31.1749
rradius 95.3185
rwrist -14.5954
rhand -21.5954 30.4068
rfingers 7.12502
rthumb 4.79947 0.48121
lclavicle 8.02593e-015 -2.38542e-014
lhumerus 61.696 -61.1257 5.53182
lradius 103.892
lwrist -0.520853
lhand -3.37905 8.39991
lfingers 7.12502
lthumb 22.3501 37.1271
rfemur -14.753 6.58751 26.9943
rtibia 33.0177
rfoot -18.1184 -16.6919
rtoes 26.484
lfemur -14.2353 -9.12443 -18.671
ltibia 29.1937
lfoot -16.4928 8.50339
ltoes 6.34015
3796
root 0.0371944 18.2365 -3.50505 3.89697 0.200267 -2.77802
lowerback 0.859258 -0.755645 0.566508
upperback -2.71615 -0.910661 2.98564
thorax -3.23516 -0.427213 2.79094
lowerneck -14.054 -9.56037 -7.80181
upperneck 15.4917 -11.8862 2.67937
head 7.7112 -5.89727 0.794533
rclavicle 2.90723e-015 -3.97569e-016
rhumerus 36.9383 39.8544 -30.7661
rradius 93.9901
rwrist -13.9194
rhand -22.2279 29.9856
rfingers 7.12502
rthumb 4.18874 0.0470736
lclavicle 2.90723e-015 -3.97569e-016
lhumerus 59.9954 -60.9816 7.64649
lradius 104.783
lwrist -0.418976
lhand -4.82479 6.72232
lfingers 7.12502
lthumb 20.9618 35.6096
rfemur -14.6932 6.5636 27.0543
rtibia 32.9878
rfoot -18.1508 -16.6058
rtoes 26.7958
lfemur -14.236 -9.08889 -18.6209
ltibia 29.2798
lfoot -16.5614 8.47244
ltoes 6.4526
3797
root 0.035788 18.2339 -3.50588 3.82989 0.216415 -2.93925
lowerback 0.801062 -0.730017 0.775036
upperback -2.58386 -0.877863 2.92872
thorax -3.07073 -0.418228 2.61041
lowerneck -14.1101 -9.6795 -7.73186
upperneck 15.4367 -12.0831 2.81217
head 7.71674 -5.97354 0.800473
rclavicle -7.442e-015 1.19271e-014
rhumerus 36.8608 40.3657 -30.5814
rradius 92.7323
rwrist -13.3158
rhand -22.4355 29.8192
rfingers 7.12502
rthumb 3.98825 -0.123195
lclavicle -7.442e-015 1.19271e-014
lhumerus 58.9677 -60.3895 8.99434
lradius 105.662
lwrist -0.437689
lhand -5.17717 7.38208
lfingers 7.12502
lthumb 20.6232 36.3065
rfemur -14.5902 6.52087 27.2466
rtibia 32.9363
rfoot -18.1323 -16.6013
rtoes 26.8465
lfemur -14.2271 -9.06675 -18.4392
ltibia 29.3895
lfoot -16.6298 8.43238
ltoes 6.8209
3798
root 0.032948 18.2327 -3.5082 3.78855 0.197746 -3.04664
lowerback 0.658675 -0.616286 1.05939
upperback -2.43334 -0.732033 2.7462
thorax -2.84613 -0.355624 2.25282
lowerneck -14.0763 -9.86919 -7.6588
upperneck 15.2959 -12.4028 3.05714
head 7.69228 -6.0995 0.832423
rclavicle 1.55611e-014 -1.98785e-014
rhumerus 36.4022 40.7391 -30.6886
rradius 91.5562
rwrist -13.1469
rhand -21.9344 30.282
rfingers 7.12502
rthumb 4.47211 0.34921
lclavicle 1.55611e-014 -1.98785e-014
lhumerus 58.3524 -59.6498 9.99953
lradius 106.551
lwrist -0.392381
lhand -5.8961 7.7395
lfingers 7.12502
lthumb 19.9322 36.7373
rfemur -14.5422 6.55892 27.3804
rtibia 32.9046
rfoot -18.0785 -16.6491
rtoes 26.5836
lfemur -14.2339 -9.02267 -18.3186
ltibia 29.4814
lfoot -16.6714 8.45584
ltoes 6.7197
3799
root 0.0305367 18.2317 -3.51082 3.79281 0.180042 -3.07886
lowerback 0.542486 -0.551873 1.16198
upperback -2.35369 -0.651593 2.65418
thorax -2.70297 -0.319258 2.09524
lowerneck -14.0066 -10.0048 -7.67222
upperneck 15.1565 -12.6121 3.19833
head 7.65576 -6.18848 0.859507
rclavicle 2.02947e-014 -2.22639e-014
rhumerus 36.1332 41.3753 -30.5938
rradius 90.4347
rwrist -13.0919
rhand -21.2831 30.8851
rfingers 7.12502
rthumb 5.10097 0.966475
lclavicle 2.02947e-014 -2.22639e-014
lhumerus 57.1794 -58.8539 11.6694
lradius 107.24
lwrist -0.205106
lhand -6.95967 8.84375
lfingers 7.12502
lthumb 18.9096 37.9446
rfemur -14.56 6.55519 27.4221
rtibia 32.8967
rfoot -17.9982 -16.6329
rtoes 26.2935
lfemur -14.2689 -9.0051 -18.2788
ltibia 29.562
lfoot -16.6979 8.47948
ltoes 6.85875
3800
root 0.0289761 18.2298 -3.51289 3.76617 0.1735 -3.07958
lowerback 0.576727 -0.54324 1.2002
upperback -2.34106 -0.640239 2.58652
thorax -2.71061 -0.315234 2.00398
lowerneck -14.0049 -10.0686 -7.68532
upperneck 15.1929 -12.7175 3.29572
head 7.68079 -6.23023 0.878053
rclavicle -5.93248e-015 -9.93923e-015
rhumerus 36.1661 42.3341 -30.2022
rradius 89.3749
rwrist -13.0861
rhand -21.3295 31.206
rfingers 7.12502
rthumb 5.05619 1.28637
lclavicle -5.93248e-015 -9.93923e-015
lhumerus 55.6085 -58.0898 13.6407
lradius 107.91
lwrist 0.142985
lhand -6.67639 9.53407
lfingers 7.12502
lthumb 19.182 38.6081
rfemur -14.5464 6.55898 27.4282
rtibia 32.9178
rfoot -18.0106 -16.6125
rtoes 26.5348
lfemur -14.2716 -8.9828 -18.2805
ltibia 29.628
lfoot -16.6769 8.53466
ltoes 6.51192
3801
root 0.0261951 18.2292 -3.51354 3.75941 0.124531 -3.0348
lowerback 0.666265 -0.499823 1.15243
upperback -2.40968 -0.580885 2.49853
thorax -2.83364 -0.28535 1.94021
lowerneck -13.9359 -10.1605 -7.73478
upperneck 15.3357 -12.8682 3.41098
head 7.73597 -6.29475 0.90228
rclavicle -1.1983e-014 1.07344e-014
rhumerus 36.0904 43.4221 -29.8515
rradius 88.4038
rwrist -13.0234
rhand -21.4982 31.0884
rfingers 7.12502
rthumb 4.89335 1.16491
lclavicle -1.1983e-014 1.07344e-014
lhumerus 54.0075 -57.3549 15.6744
lradius 108.488
lwrist 0.619637
lhand -6.95941 9.92373
lfingers 7.12502
lthumb 18.9099 39.0246
rfemur -14.5627 6.53993 27.3841
rtibia 32.946
rfoot -17.938 -16.5767
rtoes 26.4356
lfemur -14.2853 -8.98835 -18.3252
ltibia 29.6755
lfoot -16.6545 8.56136
ltoes 6.81609
